# xmcd CD database file
#
# Track frame offsets:
#	150
#	22578
#	42370
#	61970
#	76978
#	94988
#	115840
#	139195
#	160978
#	183638
#	208488
#
# Disc length: 2874 seconds
#
# Revision: 0
# Processed by: cddbd v1.5.1PL2 Copyright (c) Steve Scherf et al.
# Submitted via: CDex 1.51
#
DISCID=960b380b
DTITLE=谷口崇 - becoming
DYEAR=1998
DGENRE=JPop
TTITLE0=becoming
TTITLE1=走れ！トーマス
TTITLE2=ヨランダ
TTITLE3=夜をクロール
TTITLE4=カラリといこうぜ！
TTITLE5=Rock&Hammer
TTITLE6=秘密の海
TTITLE7=心に水をやろう
TTITLE8=オールマイティ・ベイビィ
TTITLE9=苦々しい
TTITLE10=ヨランダ・リプライズ
EXTD=YEAR: 1998
EXTT0=
EXTT1=
EXTT2=
EXTT3=
EXTT4=
EXTT5=
EXTT6=
EXTT7=
EXTT8=
EXTT9=
EXTT10=
PLAYORDER=
